<svg width="198" height="37" viewBox="0 0 198 37" fill="none" xmlns="http://www.w3.org/2000/svg">
<path d="M155.446 4.57551C154.321 4.57551 152.858 5.06307 152.858 7.1258V9.15102H157.021V13.4265H152.858V27.6031H147.833V13.4265H144.757V9.15102H147.833V7.05079C147.833 2.88782 150.458 0.187523 154.546 0.187523C155.596 0.187523 156.609 0.375044 157.021 0.562564V4.76303C156.759 4.68802 156.271 4.57551 155.446 4.57551Z" fill="#2E2D2E"/>
<path d="M141.555 27.6031H136.567V9.15102H141.555V27.6031ZM135.967 3.11285C135.967 1.38766 137.354 0 139.042 0C140.767 0 142.117 1.38766 142.117 3.11285C142.117 4.76303 140.767 6.15069 139.042 6.15069C137.354 6.15069 135.967 4.76303 135.967 3.11285Z" fill="#2E2D2E"/>
<path d="M128.617 3.63791V9.15103H132.33V13.5765H128.617V21.3024C128.617 22.9151 129.367 23.4401 130.792 23.4401C131.392 23.4401 132.067 23.3651 132.33 23.2901V27.4156C131.88 27.6031 130.98 27.8656 129.517 27.8656C125.916 27.8656 123.666 25.7279 123.666 22.165V13.5765H120.328V9.15103H121.266C123.216 9.15103 124.116 7.87588 124.116 6.2257V3.63791H128.617Z" fill="#2E2D2E"/>
<path d="M117.126 27.6031H112.138V0.450058H117.126V27.6031Z" fill="#2E2D2E"/>
<path d="M102.239 27.6031C102.164 27.228 102.089 26.3654 102.089 25.6154C101.076 27.3405 98.9387 28.0906 96.9885 28.0906C92.5255 28.0906 89.9752 24.8278 89.9752 20.8148V9.15102H94.9632V19.8022C94.9632 21.8649 96.0134 23.5151 98.3386 23.5151C100.551 23.5151 101.827 22.015 101.827 19.8772V9.15102H106.815V24.2652C106.815 25.6904 106.927 26.9655 107.002 27.6031H102.239Z" fill="#2E2D2E"/>
<path d="M71.4469 22.465L75.7224 21.5274C75.8349 22.9901 76.9225 24.3402 79.0978 24.3402C80.748 24.3402 81.5356 23.4776 81.5356 22.5025C81.5356 21.6774 80.973 21.0023 79.5478 20.7023L77.1101 20.1397C73.5472 19.3522 71.9345 17.2144 71.9345 14.6266C71.9345 11.3263 74.8598 8.58846 78.8353 8.58846C84.0858 8.58846 85.8485 11.9263 86.0736 13.9141L81.9106 14.8517C81.7606 13.764 80.973 12.3764 78.8728 12.3764C77.5601 12.3764 76.51 13.164 76.51 14.2141C76.51 15.1142 77.1851 15.6767 78.1977 15.8643L80.823 16.4268C84.4609 17.1769 86.2986 19.3897 86.2986 22.09C86.2986 25.0903 83.9733 28.1656 79.1353 28.1656C73.5847 28.1656 71.672 24.5652 71.4469 22.465Z" fill="#2E2D2E"/>
<path d="M56.1083 16.9894V27.6031H51.1203V9.15102H55.9583V11.4388C57.0834 9.52606 59.2962 8.66347 61.2839 8.66347C65.8594 8.66347 67.9596 11.9263 67.9596 15.9768V27.6031H62.9716V16.8394C62.9716 14.7766 61.959 13.164 59.5587 13.164C57.3835 13.164 56.1083 14.8517 56.1083 16.9894Z" fill="#2E2D2E"/>
<path d="M37.5068 23.6276C39.9446 23.6276 42.1949 21.8649 42.1949 18.377C42.1949 14.8892 39.9446 13.1265 37.5068 13.1265C35.0691 13.1265 32.8188 14.8892 32.8188 18.377C32.8188 21.8274 35.0691 23.6276 37.5068 23.6276ZM37.5068 8.58846C43.0199 8.58846 47.1829 12.6764 47.1829 18.377C47.1829 24.0402 43.0199 28.1656 37.5068 28.1656C31.9937 28.1656 27.8307 24.0402 27.8307 18.377C27.8307 12.6764 31.9937 8.58846 37.5068 8.58846Z" fill="#2E2D2E"/>
<path d="M13.614 28.1657C6.18819 28.1657 0 22.8026 0 14.3266C0 5.85066 6.41322 0.450058 13.539 0.450058C20.8898 0.450058 24.6778 4.95056 25.7279 9.26354L20.8523 10.8012C20.2148 8.25093 18.152 5.43812 13.539 5.43812C9.56357 5.43812 5.3631 8.28843 5.3631 14.3266C5.3631 19.9897 9.33854 23.1026 13.614 23.1026C18.152 23.1026 20.3648 20.1398 21.0774 17.6645L25.9154 19.1271C24.9028 23.2151 21.0774 28.1657 13.614 28.1657Z" fill="#2E2D2E"/>
<path d="M194.261 27.6031H192.999L194.349 21.16H195.61L195.127 23.4542C195.411 23.2315 195.676 23.0718 195.922 22.9751C196.168 22.8755 196.432 22.8257 196.713 22.8257C197.091 22.8257 197.39 22.9341 197.61 23.1509C197.83 23.3677 197.939 23.652 197.939 24.0036C197.939 24.1911 197.898 24.4812 197.816 24.8738L197.245 27.6031H195.984L196.568 24.821C196.63 24.5192 196.661 24.3259 196.661 24.2409C196.661 24.0856 196.612 23.9611 196.515 23.8673C196.419 23.7736 196.287 23.7267 196.12 23.7267C195.909 23.7267 195.707 23.7999 195.513 23.9464C195.261 24.1398 195.07 24.3771 194.938 24.6584C194.864 24.8137 194.768 25.1785 194.648 25.7528L194.261 27.6031Z" fill="#151415"/>
<path d="M191.136 25.8451L192.362 26.0429C192.16 26.5878 191.861 27.0024 191.466 27.2866C191.07 27.5709 190.612 27.713 190.09 27.713C189.495 27.713 189.023 27.5357 188.675 27.1812C188.326 26.8266 188.152 26.3388 188.152 25.7176C188.152 25.2107 188.257 24.7317 188.468 24.2804C188.679 23.8292 188.997 23.4747 189.422 23.2169C189.847 22.9561 190.313 22.8257 190.82 22.8257C191.37 22.8257 191.81 22.9693 192.138 23.2564C192.466 23.5435 192.651 23.9215 192.692 24.3903L191.492 24.5178C191.463 24.257 191.382 24.0651 191.25 23.942C191.121 23.819 190.951 23.7574 190.74 23.7574C190.497 23.7574 190.27 23.8483 190.059 24.0299C189.848 24.2116 189.686 24.4841 189.571 24.8474C189.46 25.2078 189.404 25.5462 189.404 25.8627C189.404 26.1381 189.472 26.3505 189.607 26.4999C189.741 26.6494 189.91 26.7241 190.112 26.7241C190.314 26.7241 190.509 26.6508 190.696 26.5043C190.884 26.3578 191.031 26.1381 191.136 25.8451Z" fill="#151415"/>
<path d="M187.506 25.6605H184.341C184.338 25.7103 184.337 25.7484 184.337 25.7748C184.337 26.0853 184.425 26.3359 184.601 26.5263C184.779 26.7168 184.996 26.812 185.251 26.812C185.67 26.812 185.997 26.5952 186.231 26.1615L187.361 26.3505C187.141 26.8047 186.846 27.146 186.477 27.3745C186.111 27.6002 185.699 27.713 185.242 27.713C184.615 27.713 184.105 27.5152 183.713 27.1196C183.32 26.7211 183.124 26.1952 183.124 25.5418C183.124 24.9031 183.301 24.3347 183.656 23.8366C184.139 23.1626 184.829 22.8257 185.726 22.8257C186.297 22.8257 186.751 23.003 187.088 23.3575C187.425 23.7091 187.594 24.2028 187.594 24.8386C187.594 25.1433 187.564 25.4173 187.506 25.6605ZM186.442 24.8914C186.445 24.8357 186.446 24.7932 186.446 24.7639C186.446 24.4182 186.369 24.1589 186.214 23.986C186.058 23.8131 185.85 23.7267 185.589 23.7267C185.329 23.7267 185.094 23.8248 184.886 24.0211C184.681 24.2175 184.542 24.5075 184.469 24.8914H186.442Z" fill="#151415"/>
<path d="M180.606 27.6031H179.278L180.403 22.2368H178.513L178.738 21.16H183.814L183.59 22.2368H181.726L180.606 27.6031Z" fill="#151415"/>
<path d="M164.306 9.03851H159.243C159.243 17.8895 164.618 22.1025 167.306 23.1026C163.256 20.1022 163.618 12.2889 164.306 9.03851Z" fill="#00BF1F"/>
<path d="M171.057 9.22603H177.432C177.432 26.692 157.743 37.5417 139.178 36.9791C158.394 31.0585 172.369 20.6648 171.057 9.22603Z" fill="#00BF1F"/>
</svg>
